<mxfile host="Electron" modified="2023-08-26T14:07:57.048Z" agent="Mozilla/5.0 (Windows NT 10.0; Win64; x64) AppleWebKit/537.36 (KHTML, like Gecko) draw.io/21.6.8 Chrome/114.0.5735.289 Electron/25.5.0 Safari/537.36" etag="JMAekpDaWGiofm28m-i-" version="21.6.8" type="device">
  <diagram name="Page-1" id="SstovkWFvopP423Y3gkW">
    <mxGraphModel dx="2773" dy="2340" grid="1" gridSize="10" guides="1" tooltips="1" connect="1" arrows="1" fold="1" page="1" pageScale="1" pageWidth="850" pageHeight="1100" math="0" shadow="0">
      <root>
        <mxCell id="0" />
        <mxCell id="1" parent="0" />
        <mxCell id="RYSnVqshEYIntnt8OESb-21" value="" style="ellipse;whiteSpace=wrap;html=1;" parent="1" vertex="1">
          <mxGeometry x="-389" y="162.5" width="90" height="40" as="geometry" />
        </mxCell>
        <mxCell id="RYSnVqshEYIntnt8OESb-22" value="" style="rounded=0;whiteSpace=wrap;html=1;" parent="1" vertex="1">
          <mxGeometry x="-299" y="247.5" width="110" height="30" as="geometry" />
        </mxCell>
        <mxCell id="RYSnVqshEYIntnt8OESb-23" value="" style="ellipse;whiteSpace=wrap;html=1;" parent="1" vertex="1">
          <mxGeometry x="-139" y="197.5" width="90" height="40" as="geometry" />
        </mxCell>
        <mxCell id="RYSnVqshEYIntnt8OESb-24" value="" style="ellipse;whiteSpace=wrap;html=1;" parent="1" vertex="1">
          <mxGeometry x="-439" y="247.5" width="90" height="40" as="geometry" />
        </mxCell>
        <mxCell id="RYSnVqshEYIntnt8OESb-25" value="" style="ellipse;whiteSpace=wrap;html=1;" parent="1" vertex="1">
          <mxGeometry x="-289" y="162.5" width="90" height="40" as="geometry" />
        </mxCell>
        <mxCell id="RYSnVqshEYIntnt8OESb-26" value="" style="ellipse;whiteSpace=wrap;html=1;" parent="1" vertex="1">
          <mxGeometry x="-169" y="302.5" width="90" height="40" as="geometry" />
        </mxCell>
        <mxCell id="RYSnVqshEYIntnt8OESb-27" value="" style="ellipse;whiteSpace=wrap;html=1;" parent="1" vertex="1">
          <mxGeometry x="-289" y="322.5" width="90" height="40" as="geometry" />
        </mxCell>
        <mxCell id="RYSnVqshEYIntnt8OESb-28" value="" style="ellipse;whiteSpace=wrap;html=1;" parent="1" vertex="1">
          <mxGeometry x="-399" y="312.5" width="90" height="40" as="geometry" />
        </mxCell>
        <mxCell id="RYSnVqshEYIntnt8OESb-29" value="" style="endArrow=none;html=1;rounded=0;entryX=0.061;entryY=0.74;entryDx=0;entryDy=0;entryPerimeter=0;exitX=0.984;exitY=-0.006;exitDx=0;exitDy=0;exitPerimeter=0;" parent="1" source="RYSnVqshEYIntnt8OESb-22" target="RYSnVqshEYIntnt8OESb-23" edge="1">
          <mxGeometry width="50" height="50" relative="1" as="geometry">
            <mxPoint x="-209" y="262.5" as="sourcePoint" />
            <mxPoint x="-159" y="212.5" as="targetPoint" />
          </mxGeometry>
        </mxCell>
        <mxCell id="RYSnVqshEYIntnt8OESb-30" value="" style="endArrow=none;html=1;rounded=0;exitX=1;exitY=1;exitDx=0;exitDy=0;entryX=0;entryY=0;entryDx=0;entryDy=0;" parent="1" source="RYSnVqshEYIntnt8OESb-22" target="RYSnVqshEYIntnt8OESb-26" edge="1">
          <mxGeometry width="50" height="50" relative="1" as="geometry">
            <mxPoint x="-169" y="282.5" as="sourcePoint" />
            <mxPoint x="-119" y="232.5" as="targetPoint" />
          </mxGeometry>
        </mxCell>
        <mxCell id="RYSnVqshEYIntnt8OESb-31" value="" style="endArrow=none;html=1;rounded=0;exitX=0.5;exitY=0;exitDx=0;exitDy=0;entryX=0.5;entryY=1;entryDx=0;entryDy=0;" parent="1" source="RYSnVqshEYIntnt8OESb-27" target="RYSnVqshEYIntnt8OESb-22" edge="1">
          <mxGeometry width="50" height="50" relative="1" as="geometry">
            <mxPoint x="-269" y="282.5" as="sourcePoint" />
            <mxPoint x="-219" y="232.5" as="targetPoint" />
          </mxGeometry>
        </mxCell>
        <mxCell id="RYSnVqshEYIntnt8OESb-32" value="" style="endArrow=none;html=1;rounded=0;entryX=0.5;entryY=1;entryDx=0;entryDy=0;exitX=0.5;exitY=0;exitDx=0;exitDy=0;" parent="1" source="RYSnVqshEYIntnt8OESb-22" target="RYSnVqshEYIntnt8OESb-25" edge="1">
          <mxGeometry width="50" height="50" relative="1" as="geometry">
            <mxPoint x="-269" y="282.5" as="sourcePoint" />
            <mxPoint x="-219" y="232.5" as="targetPoint" />
          </mxGeometry>
        </mxCell>
        <mxCell id="RYSnVqshEYIntnt8OESb-33" value="" style="endArrow=none;html=1;rounded=0;entryX=0.688;entryY=0.95;entryDx=0;entryDy=0;entryPerimeter=0;" parent="1" target="RYSnVqshEYIntnt8OESb-21" edge="1">
          <mxGeometry width="50" height="50" relative="1" as="geometry">
            <mxPoint x="-299" y="247.5" as="sourcePoint" />
            <mxPoint x="-292.1943464145061" y="191.648422413476" as="targetPoint" />
          </mxGeometry>
        </mxCell>
        <mxCell id="RYSnVqshEYIntnt8OESb-34" value="" style="endArrow=none;html=1;rounded=0;exitX=1;exitY=0.5;exitDx=0;exitDy=0;entryX=0;entryY=0.5;entryDx=0;entryDy=0;" parent="1" source="RYSnVqshEYIntnt8OESb-24" target="RYSnVqshEYIntnt8OESb-22" edge="1">
          <mxGeometry width="50" height="50" relative="1" as="geometry">
            <mxPoint x="-279" y="292.5" as="sourcePoint" />
            <mxPoint x="-229" y="242.5" as="targetPoint" />
          </mxGeometry>
        </mxCell>
        <mxCell id="RYSnVqshEYIntnt8OESb-35" value="" style="endArrow=none;html=1;rounded=0;exitX=0.736;exitY=0.04;exitDx=0;exitDy=0;exitPerimeter=0;entryX=0;entryY=1;entryDx=0;entryDy=0;" parent="1" source="RYSnVqshEYIntnt8OESb-28" target="RYSnVqshEYIntnt8OESb-22" edge="1">
          <mxGeometry width="50" height="50" relative="1" as="geometry">
            <mxPoint x="-279" y="292.5" as="sourcePoint" />
            <mxPoint x="-300" y="280" as="targetPoint" />
          </mxGeometry>
        </mxCell>
        <mxCell id="RYSnVqshEYIntnt8OESb-38" value="" style="ellipse;whiteSpace=wrap;html=1;" parent="1" vertex="1">
          <mxGeometry x="211" y="162.5" width="90" height="40" as="geometry" />
        </mxCell>
        <mxCell id="RYSnVqshEYIntnt8OESb-39" value="" style="rounded=0;whiteSpace=wrap;html=1;" parent="1" vertex="1">
          <mxGeometry x="201" y="242.5" width="110" height="30" as="geometry" />
        </mxCell>
        <mxCell id="RYSnVqshEYIntnt8OESb-40" value="" style="ellipse;whiteSpace=wrap;html=1;" parent="1" vertex="1">
          <mxGeometry x="321" y="177.5" width="90" height="40" as="geometry" />
        </mxCell>
        <mxCell id="RYSnVqshEYIntnt8OESb-42" value="" style="ellipse;whiteSpace=wrap;html=1;" parent="1" vertex="1">
          <mxGeometry x="310" y="302.5" width="100" height="40" as="geometry" />
        </mxCell>
        <mxCell id="RYSnVqshEYIntnt8OESb-43" value="" style="ellipse;whiteSpace=wrap;html=1;" parent="1" vertex="1">
          <mxGeometry x="200" y="317.5" width="110" height="40" as="geometry" />
        </mxCell>
        <mxCell id="RYSnVqshEYIntnt8OESb-45" value="" style="endArrow=none;html=1;rounded=0;entryX=0.2;entryY=0.909;entryDx=0;entryDy=0;entryPerimeter=0;exitX=0.984;exitY=-0.006;exitDx=0;exitDy=0;exitPerimeter=0;" parent="1" source="RYSnVqshEYIntnt8OESb-39" target="RYSnVqshEYIntnt8OESb-40" edge="1">
          <mxGeometry width="50" height="50" relative="1" as="geometry">
            <mxPoint x="291" y="257.5" as="sourcePoint" />
            <mxPoint x="341" y="207.5" as="targetPoint" />
          </mxGeometry>
        </mxCell>
        <mxCell id="RYSnVqshEYIntnt8OESb-46" value="" style="endArrow=none;html=1;rounded=0;exitX=1;exitY=1;exitDx=0;exitDy=0;entryX=0;entryY=0;entryDx=0;entryDy=0;" parent="1" source="RYSnVqshEYIntnt8OESb-39" edge="1">
          <mxGeometry width="50" height="50" relative="1" as="geometry">
            <mxPoint x="331" y="277.5" as="sourcePoint" />
            <mxPoint x="344.31705233158164" y="303.29729932105397" as="targetPoint" />
          </mxGeometry>
        </mxCell>
        <mxCell id="RYSnVqshEYIntnt8OESb-47" value="" style="endArrow=none;html=1;rounded=0;exitX=0.5;exitY=0;exitDx=0;exitDy=0;entryX=0.5;entryY=1;entryDx=0;entryDy=0;" parent="1" source="RYSnVqshEYIntnt8OESb-43" target="RYSnVqshEYIntnt8OESb-39" edge="1">
          <mxGeometry width="50" height="50" relative="1" as="geometry">
            <mxPoint x="231" y="277.5" as="sourcePoint" />
            <mxPoint x="281" y="227.5" as="targetPoint" />
          </mxGeometry>
        </mxCell>
        <mxCell id="RYSnVqshEYIntnt8OESb-48" value="" style="endArrow=none;html=1;rounded=0;entryX=0.5;entryY=1;entryDx=0;entryDy=0;exitX=0.5;exitY=0;exitDx=0;exitDy=0;" parent="1" source="RYSnVqshEYIntnt8OESb-39" target="RYSnVqshEYIntnt8OESb-38" edge="1">
          <mxGeometry width="50" height="50" relative="1" as="geometry">
            <mxPoint x="231" y="277.5" as="sourcePoint" />
            <mxPoint x="256" y="197.5" as="targetPoint" />
          </mxGeometry>
        </mxCell>
        <mxCell id="RYSnVqshEYIntnt8OESb-52" value="" style="rhombus;whiteSpace=wrap;html=1;" parent="1" vertex="1">
          <mxGeometry x="-49" y="212.5" width="170" height="65" as="geometry" />
        </mxCell>
        <mxCell id="RYSnVqshEYIntnt8OESb-55" value="" style="ellipse;whiteSpace=wrap;html=1;" parent="1" vertex="1">
          <mxGeometry x="171" y="422.5" width="90" height="40" as="geometry" />
        </mxCell>
        <mxCell id="RYSnVqshEYIntnt8OESb-56" value="" style="rounded=0;whiteSpace=wrap;html=1;" parent="1" vertex="1">
          <mxGeometry x="161" y="502.5" width="110" height="30" as="geometry" />
        </mxCell>
        <mxCell id="RYSnVqshEYIntnt8OESb-58" value="" style="ellipse;whiteSpace=wrap;html=1;" parent="1" vertex="1">
          <mxGeometry x="150" y="577.5" width="130" height="42.5" as="geometry" />
        </mxCell>
        <mxCell id="RYSnVqshEYIntnt8OESb-61" value="" style="endArrow=none;html=1;rounded=0;exitX=0.5;exitY=0;exitDx=0;exitDy=0;entryX=0.5;entryY=1;entryDx=0;entryDy=0;" parent="1" source="RYSnVqshEYIntnt8OESb-58" target="RYSnVqshEYIntnt8OESb-56" edge="1">
          <mxGeometry width="50" height="50" relative="1" as="geometry">
            <mxPoint x="191" y="537.5" as="sourcePoint" />
            <mxPoint x="241" y="487.5" as="targetPoint" />
          </mxGeometry>
        </mxCell>
        <mxCell id="RYSnVqshEYIntnt8OESb-62" value="" style="endArrow=none;html=1;rounded=0;entryX=0.5;entryY=1;entryDx=0;entryDy=0;exitX=0.5;exitY=0;exitDx=0;exitDy=0;" parent="1" source="RYSnVqshEYIntnt8OESb-56" target="RYSnVqshEYIntnt8OESb-55" edge="1">
          <mxGeometry width="50" height="50" relative="1" as="geometry">
            <mxPoint x="191" y="537.5" as="sourcePoint" />
            <mxPoint x="216" y="457.5" as="targetPoint" />
          </mxGeometry>
        </mxCell>
        <mxCell id="RYSnVqshEYIntnt8OESb-81" value="" style="ellipse;whiteSpace=wrap;html=1;" parent="1" vertex="1">
          <mxGeometry x="201" y="797.5" width="90" height="40" as="geometry" />
        </mxCell>
        <mxCell id="RYSnVqshEYIntnt8OESb-82" value="" style="endArrow=none;html=1;rounded=0;exitX=0.5;exitY=0;exitDx=0;exitDy=0;entryX=0.5;entryY=1;entryDx=0;entryDy=0;" parent="1" source="RYSnVqshEYIntnt8OESb-81" target="RYSnVqshEYIntnt8OESb-84" edge="1">
          <mxGeometry width="50" height="50" relative="1" as="geometry">
            <mxPoint x="221" y="757.5" as="sourcePoint" />
            <mxPoint x="271" y="707.5" as="targetPoint" />
          </mxGeometry>
        </mxCell>
        <mxCell id="RYSnVqshEYIntnt8OESb-83" value="" style="endArrow=none;html=1;rounded=0;entryX=0.5;entryY=1;entryDx=0;entryDy=0;exitX=0.5;exitY=0;exitDx=0;exitDy=0;" parent="1" source="RYSnVqshEYIntnt8OESb-84" target="RYSnVqshEYIntnt8OESb-85" edge="1">
          <mxGeometry width="50" height="50" relative="1" as="geometry">
            <mxPoint x="221" y="757.5" as="sourcePoint" />
            <mxPoint x="246" y="677.5" as="targetPoint" />
          </mxGeometry>
        </mxCell>
        <mxCell id="RYSnVqshEYIntnt8OESb-84" value="" style="rounded=0;whiteSpace=wrap;html=1;" parent="1" vertex="1">
          <mxGeometry x="191" y="722.5" width="110" height="30" as="geometry" />
        </mxCell>
        <mxCell id="RYSnVqshEYIntnt8OESb-85" value="" style="ellipse;whiteSpace=wrap;html=1;" parent="1" vertex="1">
          <mxGeometry x="201" y="642.5" width="90" height="40" as="geometry" />
        </mxCell>
        <mxCell id="RYSnVqshEYIntnt8OESb-88" value="" style="ellipse;whiteSpace=wrap;html=1;" parent="1" vertex="1">
          <mxGeometry x="321" y="497.5" width="90" height="40" as="geometry" />
        </mxCell>
        <mxCell id="RYSnVqshEYIntnt8OESb-94" value="" style="endArrow=none;html=1;rounded=0;entryX=0;entryY=0.5;entryDx=0;entryDy=0;exitX=1;exitY=0.5;exitDx=0;exitDy=0;" parent="1" source="RYSnVqshEYIntnt8OESb-56" target="RYSnVqshEYIntnt8OESb-88" edge="1">
          <mxGeometry width="50" height="50" relative="1" as="geometry">
            <mxPoint x="121" y="532.5" as="sourcePoint" />
            <mxPoint x="171" y="482.5" as="targetPoint" />
          </mxGeometry>
        </mxCell>
        <mxCell id="RYSnVqshEYIntnt8OESb-98" value="" style="ellipse;whiteSpace=wrap;html=1;" parent="1" vertex="1">
          <mxGeometry x="-169" y="577.5" width="90" height="40" as="geometry" />
        </mxCell>
        <mxCell id="RYSnVqshEYIntnt8OESb-99" value="" style="endArrow=none;html=1;rounded=0;exitX=0.5;exitY=0;exitDx=0;exitDy=0;entryX=0.5;entryY=1;entryDx=0;entryDy=0;" parent="1" source="RYSnVqshEYIntnt8OESb-98" target="RYSnVqshEYIntnt8OESb-101" edge="1">
          <mxGeometry width="50" height="50" relative="1" as="geometry">
            <mxPoint x="-149" y="537.5" as="sourcePoint" />
            <mxPoint x="-99" y="487.5" as="targetPoint" />
          </mxGeometry>
        </mxCell>
        <mxCell id="RYSnVqshEYIntnt8OESb-100" value="" style="endArrow=none;html=1;rounded=0;entryX=0.5;entryY=1;entryDx=0;entryDy=0;exitX=0.5;exitY=0;exitDx=0;exitDy=0;" parent="1" source="RYSnVqshEYIntnt8OESb-101" target="RYSnVqshEYIntnt8OESb-102" edge="1">
          <mxGeometry width="50" height="50" relative="1" as="geometry">
            <mxPoint x="-149" y="537.5" as="sourcePoint" />
            <mxPoint x="-124" y="457.5" as="targetPoint" />
          </mxGeometry>
        </mxCell>
        <mxCell id="RYSnVqshEYIntnt8OESb-101" value="" style="rounded=0;whiteSpace=wrap;html=1;" parent="1" vertex="1">
          <mxGeometry x="-179" y="502.5" width="110" height="30" as="geometry" />
        </mxCell>
        <mxCell id="RYSnVqshEYIntnt8OESb-102" value="" style="ellipse;whiteSpace=wrap;html=1;" parent="1" vertex="1">
          <mxGeometry x="-169" y="422.5" width="90" height="40" as="geometry" />
        </mxCell>
        <mxCell id="RYSnVqshEYIntnt8OESb-107" value="" style="rhombus;whiteSpace=wrap;html=1;" parent="1" vertex="1">
          <mxGeometry x="350" y="382.5" width="140" height="87.5" as="geometry" />
        </mxCell>
        <mxCell id="RYSnVqshEYIntnt8OESb-108" value="" style="rhombus;whiteSpace=wrap;html=1;" parent="1" vertex="1">
          <mxGeometry x="-350" y="417.5" width="120" height="80" as="geometry" />
        </mxCell>
        <mxCell id="RYSnVqshEYIntnt8OESb-109" value="" style="rhombus;whiteSpace=wrap;html=1;" parent="1" vertex="1">
          <mxGeometry x="71" y="342.5" width="100" height="80" as="geometry" />
        </mxCell>
        <mxCell id="qB4AP5ZWePUaIl7IGz0N-2" value="&lt;font style=&quot;font-size: 24px;&quot;&gt;users&lt;/font&gt;" style="text;strokeColor=none;align=center;fillColor=none;html=1;verticalAlign=middle;whiteSpace=wrap;rounded=0;" parent="1" vertex="1">
          <mxGeometry x="-280" y="247.5" width="60" height="30" as="geometry" />
        </mxCell>
        <mxCell id="qB4AP5ZWePUaIl7IGz0N-3" value="&lt;font style=&quot;font-size: 24px;&quot;&gt;category&lt;/font&gt;" style="text;strokeColor=none;align=center;fillColor=none;html=1;verticalAlign=middle;whiteSpace=wrap;rounded=0;" parent="1" vertex="1">
          <mxGeometry x="186" y="502.5" width="60" height="30" as="geometry" />
        </mxCell>
        <mxCell id="qB4AP5ZWePUaIl7IGz0N-4" value="&lt;font style=&quot;font-size: 24px;&quot;&gt;rooms&lt;/font&gt;" style="text;strokeColor=none;align=center;fillColor=none;html=1;verticalAlign=middle;whiteSpace=wrap;rounded=0;" parent="1" vertex="1">
          <mxGeometry x="231" y="242.5" width="60" height="30" as="geometry" />
        </mxCell>
        <mxCell id="qB4AP5ZWePUaIl7IGz0N-5" value="&lt;font style=&quot;font-size: 24px;&quot;&gt;id_proof&lt;/font&gt;" style="text;strokeColor=none;align=center;fillColor=none;html=1;verticalAlign=middle;whiteSpace=wrap;rounded=0;" parent="1" vertex="1">
          <mxGeometry x="-154" y="502.5" width="60" height="30" as="geometry" />
        </mxCell>
        <mxCell id="qB4AP5ZWePUaIl7IGz0N-6" value="&lt;font style=&quot;font-size: 18px;&quot;&gt;Booked&lt;/font&gt;" style="text;strokeColor=none;align=center;fillColor=none;html=1;verticalAlign=middle;whiteSpace=wrap;rounded=0;" parent="1" vertex="1">
          <mxGeometry y="230" width="60" height="30" as="geometry" />
        </mxCell>
        <mxCell id="qB4AP5ZWePUaIl7IGz0N-7" value="&lt;font style=&quot;font-size: 18px;&quot;&gt;has&lt;/font&gt;" style="text;strokeColor=none;align=center;fillColor=none;html=1;verticalAlign=middle;whiteSpace=wrap;rounded=0;" parent="1" vertex="1">
          <mxGeometry x="-319" y="442.5" width="60" height="30" as="geometry" />
        </mxCell>
        <mxCell id="qB4AP5ZWePUaIl7IGz0N-8" value="&lt;span style=&quot;font-size: 18px;&quot;&gt;has&lt;/span&gt;" style="text;strokeColor=none;align=center;fillColor=none;html=1;verticalAlign=middle;whiteSpace=wrap;rounded=0;" parent="1" vertex="1">
          <mxGeometry x="91" y="367.5" width="60" height="30" as="geometry" />
        </mxCell>
        <mxCell id="qB4AP5ZWePUaIl7IGz0N-9" value="&lt;font style=&quot;font-size: 18px;&quot;&gt;has&lt;/font&gt;" style="text;strokeColor=none;align=center;fillColor=none;html=1;verticalAlign=middle;whiteSpace=wrap;rounded=0;" parent="1" vertex="1">
          <mxGeometry x="390" y="411.25" width="60" height="30" as="geometry" />
        </mxCell>
        <mxCell id="qB4AP5ZWePUaIl7IGz0N-12" value="&lt;span style=&quot;font-size: 18px;&quot;&gt;email&lt;/span&gt;" style="text;strokeColor=none;align=center;fillColor=none;html=1;verticalAlign=middle;whiteSpace=wrap;rounded=0;" parent="1" vertex="1">
          <mxGeometry x="-124" y="202.5" width="60" height="30" as="geometry" />
        </mxCell>
        <mxCell id="qB4AP5ZWePUaIl7IGz0N-13" value="&lt;font style=&quot;font-size: 18px;&quot;&gt;category&lt;/font&gt;" style="text;strokeColor=none;align=center;fillColor=none;html=1;verticalAlign=middle;whiteSpace=wrap;rounded=0;" parent="1" vertex="1">
          <mxGeometry x="226" y="167.5" width="60" height="30" as="geometry" />
        </mxCell>
        <mxCell id="qB4AP5ZWePUaIl7IGz0N-14" value="&lt;font style=&quot;font-size: 18px;&quot;&gt;mobile&lt;/font&gt;" style="text;strokeColor=none;align=center;fillColor=none;html=1;verticalAlign=middle;whiteSpace=wrap;rounded=0;" parent="1" vertex="1">
          <mxGeometry x="-274" y="327.5" width="60" height="30" as="geometry" />
        </mxCell>
        <mxCell id="qB4AP5ZWePUaIl7IGz0N-15" value="&lt;font style=&quot;font-size: 18px;&quot;&gt;address&lt;/font&gt;" style="text;strokeColor=none;align=center;fillColor=none;html=1;verticalAlign=middle;whiteSpace=wrap;rounded=0;" parent="1" vertex="1">
          <mxGeometry x="-154" y="307.5" width="60" height="30" as="geometry" />
        </mxCell>
        <mxCell id="qB4AP5ZWePUaIl7IGz0N-16" value="&lt;font style=&quot;font-size: 18px;&quot;&gt;gender&lt;/font&gt;" style="text;strokeColor=none;align=center;fillColor=none;html=1;verticalAlign=middle;whiteSpace=wrap;rounded=0;" parent="1" vertex="1">
          <mxGeometry x="-384" y="317.5" width="60" height="30" as="geometry" />
        </mxCell>
        <mxCell id="qB4AP5ZWePUaIl7IGz0N-17" value="&lt;font style=&quot;font-size: 18px;&quot;&gt;password&lt;/font&gt;" style="text;strokeColor=none;align=center;fillColor=none;html=1;verticalAlign=middle;whiteSpace=wrap;rounded=0;" parent="1" vertex="1">
          <mxGeometry x="-424" y="252.5" width="60" height="30" as="geometry" />
        </mxCell>
        <mxCell id="qB4AP5ZWePUaIl7IGz0N-18" value="&lt;font style=&quot;font-size: 18px;&quot;&gt;user_id&lt;/font&gt;" style="text;strokeColor=none;align=center;fillColor=none;html=1;verticalAlign=middle;whiteSpace=wrap;rounded=0;" parent="1" vertex="1">
          <mxGeometry x="-374" y="167.5" width="60" height="30" as="geometry" />
        </mxCell>
        <mxCell id="qB4AP5ZWePUaIl7IGz0N-19" value="&lt;font style=&quot;font-size: 18px;&quot;&gt;name&lt;/font&gt;" style="text;strokeColor=none;align=center;fillColor=none;html=1;verticalAlign=middle;whiteSpace=wrap;rounded=0;" parent="1" vertex="1">
          <mxGeometry x="-280" y="167.5" width="60" height="30" as="geometry" />
        </mxCell>
        <mxCell id="qB4AP5ZWePUaIl7IGz0N-20" value="&lt;font style=&quot;font-size: 18px;&quot;&gt;descripttion&lt;/font&gt;" style="text;strokeColor=none;align=center;fillColor=none;html=1;verticalAlign=middle;whiteSpace=wrap;rounded=0;" parent="1" vertex="1">
          <mxGeometry x="226" y="322.5" width="60" height="30" as="geometry" />
        </mxCell>
        <mxCell id="qB4AP5ZWePUaIl7IGz0N-21" value="&lt;font style=&quot;font-size: 18px;&quot;&gt;bed_Count&lt;/font&gt;" style="text;strokeColor=none;align=center;fillColor=none;html=1;verticalAlign=middle;whiteSpace=wrap;rounded=0;" parent="1" vertex="1">
          <mxGeometry x="330" y="307.5" width="60" height="30" as="geometry" />
        </mxCell>
        <mxCell id="qB4AP5ZWePUaIl7IGz0N-22" value="&lt;font style=&quot;font-size: 18px;&quot;&gt;price&lt;/font&gt;" style="text;strokeColor=none;align=center;fillColor=none;html=1;verticalAlign=middle;whiteSpace=wrap;rounded=0;" parent="1" vertex="1">
          <mxGeometry x="336" y="182.5" width="60" height="30" as="geometry" />
        </mxCell>
        <mxCell id="qB4AP5ZWePUaIl7IGz0N-23" value="&lt;font style=&quot;font-size: 18px;&quot;&gt;title&lt;/font&gt;" style="text;strokeColor=none;align=center;fillColor=none;html=1;verticalAlign=middle;whiteSpace=wrap;rounded=0;" parent="1" vertex="1">
          <mxGeometry x="186" y="427.5" width="60" height="30" as="geometry" />
        </mxCell>
        <mxCell id="qB4AP5ZWePUaIl7IGz0N-24" value="&lt;font style=&quot;font-size: 18px;&quot;&gt;title&lt;/font&gt;" style="text;strokeColor=none;align=center;fillColor=none;html=1;verticalAlign=middle;whiteSpace=wrap;rounded=0;" parent="1" vertex="1">
          <mxGeometry x="216" y="802.5" width="60" height="30" as="geometry" />
        </mxCell>
        <mxCell id="qB4AP5ZWePUaIl7IGz0N-25" value="&lt;font style=&quot;font-size: 18px;&quot;&gt;id&lt;/font&gt;" style="text;strokeColor=none;align=center;fillColor=none;html=1;verticalAlign=middle;whiteSpace=wrap;rounded=0;" parent="1" vertex="1">
          <mxGeometry x="336" y="502.5" width="60" height="30" as="geometry" />
        </mxCell>
        <mxCell id="qB4AP5ZWePUaIl7IGz0N-26" value="&lt;font style=&quot;font-size: 18px;&quot;&gt;description&lt;/font&gt;" style="text;strokeColor=none;align=center;fillColor=none;html=1;verticalAlign=middle;whiteSpace=wrap;rounded=0;" parent="1" vertex="1">
          <mxGeometry x="186" y="582.5" width="60" height="30" as="geometry" />
        </mxCell>
        <mxCell id="qB4AP5ZWePUaIl7IGz0N-27" value="&lt;font style=&quot;font-size: 18px;&quot;&gt;desc.&lt;/font&gt;" style="text;strokeColor=none;align=center;fillColor=none;html=1;verticalAlign=middle;whiteSpace=wrap;rounded=0;" parent="1" vertex="1">
          <mxGeometry x="216" y="647.5" width="60" height="30" as="geometry" />
        </mxCell>
        <mxCell id="qB4AP5ZWePUaIl7IGz0N-28" value="&lt;span style=&quot;font-size: 18px;&quot;&gt;unique_id&lt;/span&gt;" style="text;strokeColor=none;align=center;fillColor=none;html=1;verticalAlign=middle;whiteSpace=wrap;rounded=0;" parent="1" vertex="1">
          <mxGeometry x="-154" y="427.5" width="60" height="30" as="geometry" />
        </mxCell>
        <mxCell id="qB4AP5ZWePUaIl7IGz0N-29" value="&lt;font style=&quot;font-size: 18px;&quot;&gt;type&lt;/font&gt;" style="text;strokeColor=none;align=center;fillColor=none;html=1;verticalAlign=middle;whiteSpace=wrap;rounded=0;" parent="1" vertex="1">
          <mxGeometry x="-154" y="582.5" width="60" height="30" as="geometry" />
        </mxCell>
        <mxCell id="qB4AP5ZWePUaIl7IGz0N-34" value="&lt;font style=&quot;font-size: 24px;&quot;&gt;facilities&lt;/font&gt;" style="text;strokeColor=none;align=center;fillColor=none;html=1;verticalAlign=middle;whiteSpace=wrap;rounded=0;" parent="1" vertex="1">
          <mxGeometry x="216" y="722.5" width="60" height="30" as="geometry" />
        </mxCell>
        <mxCell id="qB4AP5ZWePUaIl7IGz0N-62" value="" style="endArrow=none;html=1;rounded=0;entryX=0.5;entryY=1;entryDx=0;entryDy=0;" parent="1" target="RYSnVqshEYIntnt8OESb-107" edge="1">
          <mxGeometry width="50" height="50" relative="1" as="geometry">
            <mxPoint x="420" y="730" as="sourcePoint" />
            <mxPoint x="180" y="540" as="targetPoint" />
          </mxGeometry>
        </mxCell>
        <mxCell id="tqBg6Mo9-5VqXeI9J1uN-1" value="" style="endArrow=none;html=1;rounded=0;exitX=1;exitY=0.5;exitDx=0;exitDy=0;entryX=0;entryY=0.5;entryDx=0;entryDy=0;" parent="1" source="RYSnVqshEYIntnt8OESb-22" target="RYSnVqshEYIntnt8OESb-52" edge="1">
          <mxGeometry width="50" height="50" relative="1" as="geometry">
            <mxPoint x="-30" y="280" as="sourcePoint" />
            <mxPoint x="20" y="230" as="targetPoint" />
          </mxGeometry>
        </mxCell>
        <mxCell id="tqBg6Mo9-5VqXeI9J1uN-2" value="" style="endArrow=none;html=1;rounded=0;exitX=1;exitY=0.5;exitDx=0;exitDy=0;entryX=0;entryY=0.5;entryDx=0;entryDy=0;" parent="1" source="RYSnVqshEYIntnt8OESb-52" target="RYSnVqshEYIntnt8OESb-39" edge="1">
          <mxGeometry width="50" height="50" relative="1" as="geometry">
            <mxPoint x="110" y="280" as="sourcePoint" />
            <mxPoint x="160" y="230" as="targetPoint" />
          </mxGeometry>
        </mxCell>
        <mxCell id="tqBg6Mo9-5VqXeI9J1uN-7" value="" style="endArrow=none;html=1;rounded=0;exitX=0.5;exitY=0;exitDx=0;exitDy=0;" parent="1" source="RYSnVqshEYIntnt8OESb-107" edge="1">
          <mxGeometry width="50" height="50" relative="1" as="geometry">
            <mxPoint x="410" y="390" as="sourcePoint" />
            <mxPoint x="420" y="260" as="targetPoint" />
          </mxGeometry>
        </mxCell>
        <mxCell id="tqBg6Mo9-5VqXeI9J1uN-8" value="" style="endArrow=none;html=1;rounded=0;exitX=0.995;exitY=0.599;exitDx=0;exitDy=0;exitPerimeter=0;" parent="1" source="RYSnVqshEYIntnt8OESb-39" edge="1">
          <mxGeometry width="50" height="50" relative="1" as="geometry">
            <mxPoint x="360" y="330" as="sourcePoint" />
            <mxPoint x="420" y="260" as="targetPoint" />
          </mxGeometry>
        </mxCell>
        <mxCell id="tqBg6Mo9-5VqXeI9J1uN-9" value="" style="endArrow=none;html=1;rounded=0;entryX=1;entryY=0.25;entryDx=0;entryDy=0;" parent="1" target="RYSnVqshEYIntnt8OESb-84" edge="1">
          <mxGeometry width="50" height="50" relative="1" as="geometry">
            <mxPoint x="420" y="730" as="sourcePoint" />
            <mxPoint x="480" y="430" as="targetPoint" />
          </mxGeometry>
        </mxCell>
        <mxCell id="tqBg6Mo9-5VqXeI9J1uN-10" value="" style="endArrow=none;html=1;rounded=0;exitX=0.5;exitY=0;exitDx=0;exitDy=0;" parent="1" source="RYSnVqshEYIntnt8OESb-109" edge="1">
          <mxGeometry width="50" height="50" relative="1" as="geometry">
            <mxPoint x="370" y="350" as="sourcePoint" />
            <mxPoint x="200" y="270" as="targetPoint" />
          </mxGeometry>
        </mxCell>
        <mxCell id="tqBg6Mo9-5VqXeI9J1uN-11" value="" style="endArrow=none;html=1;rounded=0;exitX=0.5;exitY=1;exitDx=0;exitDy=0;entryX=0;entryY=0;entryDx=0;entryDy=0;" parent="1" source="RYSnVqshEYIntnt8OESb-109" target="RYSnVqshEYIntnt8OESb-56" edge="1">
          <mxGeometry width="50" height="50" relative="1" as="geometry">
            <mxPoint x="340" y="350" as="sourcePoint" />
            <mxPoint x="160" y="500" as="targetPoint" />
          </mxGeometry>
        </mxCell>
        <mxCell id="tqBg6Mo9-5VqXeI9J1uN-12" value="" style="endArrow=none;html=1;rounded=0;entryX=0.5;entryY=0;entryDx=0;entryDy=0;exitX=0;exitY=1;exitDx=0;exitDy=0;" parent="1" source="RYSnVqshEYIntnt8OESb-22" target="RYSnVqshEYIntnt8OESb-108" edge="1">
          <mxGeometry width="50" height="50" relative="1" as="geometry">
            <mxPoint x="-300" y="280" as="sourcePoint" />
            <mxPoint x="10" y="340" as="targetPoint" />
          </mxGeometry>
        </mxCell>
        <mxCell id="tqBg6Mo9-5VqXeI9J1uN-13" value="" style="endArrow=none;html=1;rounded=0;entryX=0.5;entryY=1;entryDx=0;entryDy=0;" parent="1" target="RYSnVqshEYIntnt8OESb-108" edge="1">
          <mxGeometry width="50" height="50" relative="1" as="geometry">
            <mxPoint x="-180" y="520" as="sourcePoint" />
            <mxPoint x="-20" y="530" as="targetPoint" />
          </mxGeometry>
        </mxCell>
        <mxCell id="tqBg6Mo9-5VqXeI9J1uN-78" value="" style="ellipse;whiteSpace=wrap;html=1;" parent="1" vertex="1">
          <mxGeometry x="-825" y="317.5" width="105" height="40" as="geometry" />
        </mxCell>
        <mxCell id="tqBg6Mo9-5VqXeI9J1uN-81" value="&lt;font style=&quot;font-size: 18px;&quot;&gt;mobile_no&lt;/font&gt;" style="ellipse;whiteSpace=wrap;html=1;" parent="1" vertex="1">
          <mxGeometry x="-840" y="420" width="90" height="40" as="geometry" />
        </mxCell>
        <mxCell id="tqBg6Mo9-5VqXeI9J1uN-82" value="" style="ellipse;whiteSpace=wrap;html=1;" parent="1" vertex="1">
          <mxGeometry x="-690" y="302.5" width="110" height="40" as="geometry" />
        </mxCell>
        <mxCell id="tqBg6Mo9-5VqXeI9J1uN-84" value="" style="ellipse;whiteSpace=wrap;html=1;" parent="1" vertex="1">
          <mxGeometry x="-620" y="455" width="90" height="40" as="geometry" />
        </mxCell>
        <mxCell id="tqBg6Mo9-5VqXeI9J1uN-85" value="" style="ellipse;whiteSpace=wrap;html=1;" parent="1" vertex="1">
          <mxGeometry x="-742.5" y="460" width="90" height="40" as="geometry" />
        </mxCell>
        <mxCell id="tqBg6Mo9-5VqXeI9J1uN-88" value="" style="endArrow=none;html=1;rounded=0;entryX=1;entryY=1;entryDx=0;entryDy=0;exitX=0.248;exitY=-0.113;exitDx=0;exitDy=0;exitPerimeter=0;" parent="1" source="tqBg6Mo9-5VqXeI9J1uN-95" edge="1">
          <mxGeometry width="50" height="50" relative="1" as="geometry">
            <mxPoint x="-590" y="460" as="sourcePoint" />
            <mxPoint x="-605" y="412.5" as="targetPoint" />
          </mxGeometry>
        </mxCell>
        <mxCell id="tqBg6Mo9-5VqXeI9J1uN-89" value="" style="endArrow=none;html=1;rounded=0;entryX=0.5;entryY=1;entryDx=0;entryDy=0;exitX=0.5;exitY=0;exitDx=0;exitDy=0;" parent="1" edge="1">
          <mxGeometry width="50" height="50" relative="1" as="geometry">
            <mxPoint x="-660" y="382.5" as="sourcePoint" />
            <mxPoint x="-660" y="337.5" as="targetPoint" />
          </mxGeometry>
        </mxCell>
        <mxCell id="tqBg6Mo9-5VqXeI9J1uN-90" value="" style="endArrow=none;html=1;rounded=0;entryX=1;entryY=1;entryDx=0;entryDy=0;" parent="1" target="tqBg6Mo9-5VqXeI9J1uN-78" edge="1">
          <mxGeometry width="50" height="50" relative="1" as="geometry">
            <mxPoint x="-715" y="382.5" as="sourcePoint" />
            <mxPoint x="-708.1943464145061" y="326.64842241347606" as="targetPoint" />
          </mxGeometry>
        </mxCell>
        <mxCell id="tqBg6Mo9-5VqXeI9J1uN-91" value="" style="endArrow=none;html=1;rounded=0;exitX=1;exitY=0;exitDx=0;exitDy=0;entryX=0;entryY=1;entryDx=0;entryDy=0;" parent="1" source="tqBg6Mo9-5VqXeI9J1uN-81" edge="1">
          <mxGeometry width="50" height="50" relative="1" as="geometry">
            <mxPoint x="-765" y="402.5" as="sourcePoint" />
            <mxPoint x="-715" y="412.5" as="targetPoint" />
          </mxGeometry>
        </mxCell>
        <mxCell id="tqBg6Mo9-5VqXeI9J1uN-92" value="" style="endArrow=none;html=1;rounded=0;exitX=0.5;exitY=0;exitDx=0;exitDy=0;entryX=0;entryY=1;entryDx=0;entryDy=0;" parent="1" source="tqBg6Mo9-5VqXeI9J1uN-85" target="tqBg6Mo9-5VqXeI9J1uN-93" edge="1">
          <mxGeometry width="50" height="50" relative="1" as="geometry">
            <mxPoint x="-695" y="427.5" as="sourcePoint" />
            <mxPoint x="-716" y="415" as="targetPoint" />
          </mxGeometry>
        </mxCell>
        <mxCell id="tqBg6Mo9-5VqXeI9J1uN-93" value="&lt;font style=&quot;font-size: 18px;&quot;&gt;ENQUIRY&lt;/font&gt;" style="text;strokeColor=none;align=center;fillColor=none;html=1;verticalAlign=middle;whiteSpace=wrap;rounded=0;" parent="1" vertex="1">
          <mxGeometry x="-689" y="382.5" width="60" height="30" as="geometry" />
        </mxCell>
        <mxCell id="tqBg6Mo9-5VqXeI9J1uN-95" value="&lt;font style=&quot;font-size: 18px;&quot;&gt;remark&lt;/font&gt;" style="text;strokeColor=none;align=center;fillColor=none;html=1;verticalAlign=middle;whiteSpace=wrap;rounded=0;" parent="1" vertex="1">
          <mxGeometry x="-605" y="460" width="60" height="30" as="geometry" />
        </mxCell>
        <mxCell id="tqBg6Mo9-5VqXeI9J1uN-97" value="&lt;font style=&quot;font-size: 18px;&quot;&gt;email&lt;/font&gt;" style="text;strokeColor=none;align=center;fillColor=none;html=1;verticalAlign=middle;whiteSpace=wrap;rounded=0;" parent="1" vertex="1">
          <mxGeometry x="-727.5" y="467.5" width="60" height="27.5" as="geometry" />
        </mxCell>
        <mxCell id="tqBg6Mo9-5VqXeI9J1uN-99" value="&lt;span style=&quot;font-size: 18px;&quot;&gt;last_name&lt;/span&gt;" style="text;strokeColor=none;align=center;fillColor=none;html=1;verticalAlign=middle;whiteSpace=wrap;rounded=0;" parent="1" vertex="1">
          <mxGeometry x="-802.5" y="322.5" width="60" height="30" as="geometry" />
        </mxCell>
        <mxCell id="tqBg6Mo9-5VqXeI9J1uN-100" value="&lt;font style=&quot;font-size: 18px;&quot;&gt;first_name&lt;/font&gt;" style="text;strokeColor=none;align=center;fillColor=none;html=1;verticalAlign=middle;whiteSpace=wrap;rounded=0;" parent="1" vertex="1">
          <mxGeometry x="-670" y="307.5" width="60" height="30" as="geometry" />
        </mxCell>
        <mxCell id="tqBg6Mo9-5VqXeI9J1uN-107" value="" style="endArrow=none;dashed=1;html=1;rounded=0;exitX=1;exitY=0;exitDx=0;exitDy=0;entryX=0;entryY=0.75;entryDx=0;entryDy=0;" parent="1" target="RYSnVqshEYIntnt8OESb-22" edge="1">
          <mxGeometry width="50" height="50" relative="1" as="geometry">
            <mxPoint x="-605" y="382.5" as="sourcePoint" />
            <mxPoint x="-460" y="360" as="targetPoint" />
          </mxGeometry>
        </mxCell>
        <mxCell id="tqBg6Mo9-5VqXeI9J1uN-108" value="" style="ellipse;whiteSpace=wrap;html=1;" parent="1" vertex="1">
          <mxGeometry x="-680" y="182.5" width="110" height="40" as="geometry" />
        </mxCell>
        <mxCell id="tqBg6Mo9-5VqXeI9J1uN-109" value="" style="endArrow=none;html=1;rounded=0;exitX=0.5;exitY=0;exitDx=0;exitDy=0;entryX=0.5;entryY=1;entryDx=0;entryDy=-10;entryPerimeter=0;" parent="1" source="tqBg6Mo9-5VqXeI9J1uN-108" target="tqBg6Mo9-5VqXeI9J1uN-152" edge="1">
          <mxGeometry width="50" height="50" relative="1" as="geometry">
            <mxPoint x="-650" y="142.5" as="sourcePoint" />
            <mxPoint x="-625" y="137.5" as="targetPoint" />
          </mxGeometry>
        </mxCell>
        <mxCell id="tqBg6Mo9-5VqXeI9J1uN-110" value="" style="endArrow=none;html=1;rounded=0;entryX=0.5;entryY=1;entryDx=0;entryDy=0;exitX=0.5;exitY=0;exitDx=0;exitDy=0;" parent="1" target="tqBg6Mo9-5VqXeI9J1uN-112" edge="1">
          <mxGeometry width="50" height="50" relative="1" as="geometry">
            <mxPoint x="-625" y="107.5" as="sourcePoint" />
            <mxPoint x="-625" y="62.5" as="targetPoint" />
          </mxGeometry>
        </mxCell>
        <mxCell id="tqBg6Mo9-5VqXeI9J1uN-112" value="" style="ellipse;whiteSpace=wrap;html=1;" parent="1" vertex="1">
          <mxGeometry x="-670" y="27.5" width="90" height="40" as="geometry" />
        </mxCell>
        <mxCell id="tqBg6Mo9-5VqXeI9J1uN-113" value="&lt;font style=&quot;font-size: 18px;&quot;&gt;time_perod&lt;/font&gt;" style="text;strokeColor=none;align=center;fillColor=none;html=1;verticalAlign=middle;whiteSpace=wrap;rounded=0;" parent="1" vertex="1">
          <mxGeometry x="-655" y="187.5" width="60" height="30" as="geometry" />
        </mxCell>
        <mxCell id="tqBg6Mo9-5VqXeI9J1uN-114" value="&lt;font style=&quot;font-size: 18px;&quot;&gt;title&lt;/font&gt;" style="text;strokeColor=none;align=center;fillColor=none;html=1;verticalAlign=middle;whiteSpace=wrap;rounded=0;" parent="1" vertex="1">
          <mxGeometry x="-655" y="32.5" width="60" height="30" as="geometry" />
        </mxCell>
        <mxCell id="tqBg6Mo9-5VqXeI9J1uN-115" value="&lt;span style=&quot;font-size: 24px;&quot;&gt;offer_id&lt;/span&gt;" style="text;strokeColor=none;align=center;fillColor=none;html=1;verticalAlign=middle;whiteSpace=wrap;rounded=0;" parent="1" vertex="1">
          <mxGeometry x="-655" y="107.5" width="60" height="30" as="geometry" />
        </mxCell>
        <mxCell id="tqBg6Mo9-5VqXeI9J1uN-124" value="&lt;font style=&quot;font-size: 18px;&quot;&gt;description&lt;/font&gt;" style="ellipse;whiteSpace=wrap;html=1;" parent="1" vertex="1">
          <mxGeometry x="-830" y="107.5" width="100" height="40" as="geometry" />
        </mxCell>
        <mxCell id="tqBg6Mo9-5VqXeI9J1uN-125" value="" style="endArrow=none;html=1;rounded=0;exitX=1;exitY=0.5;exitDx=0;exitDy=0;entryX=-0.01;entryY=0.629;entryDx=0;entryDy=0;entryPerimeter=0;" parent="1" source="tqBg6Mo9-5VqXeI9J1uN-124" edge="1">
          <mxGeometry width="50" height="50" relative="1" as="geometry">
            <mxPoint x="-541" y="95" as="sourcePoint" />
            <mxPoint x="-681.1" y="126.36999999999989" as="targetPoint" />
          </mxGeometry>
        </mxCell>
        <mxCell id="tqBg6Mo9-5VqXeI9J1uN-126" value="" style="endArrow=none;dashed=1;html=1;rounded=0;entryX=0;entryY=0.25;entryDx=0;entryDy=0;exitX=1;exitY=0.5;exitDx=0;exitDy=0;" parent="1" target="RYSnVqshEYIntnt8OESb-22" edge="1">
          <mxGeometry width="50" height="50" relative="1" as="geometry">
            <mxPoint x="-570" y="122.5" as="sourcePoint" />
            <mxPoint x="-120" y="460" as="targetPoint" />
          </mxGeometry>
        </mxCell>
        <mxCell id="tqBg6Mo9-5VqXeI9J1uN-137" value="" style="ellipse;whiteSpace=wrap;html=1;" parent="1" vertex="1">
          <mxGeometry x="-9" y="97.5" width="90" height="40" as="geometry" />
        </mxCell>
        <mxCell id="tqBg6Mo9-5VqXeI9J1uN-138" value="" style="endArrow=none;html=1;rounded=0;exitX=0.5;exitY=0;exitDx=0;exitDy=0;entryX=0.5;entryY=1;entryDx=0;entryDy=0;" parent="1" source="tqBg6Mo9-5VqXeI9J1uN-137" edge="1">
          <mxGeometry width="50" height="50" relative="1" as="geometry">
            <mxPoint x="11" y="57.5" as="sourcePoint" />
            <mxPoint x="36" y="52.5" as="targetPoint" />
          </mxGeometry>
        </mxCell>
        <mxCell id="tqBg6Mo9-5VqXeI9J1uN-139" value="" style="endArrow=none;html=1;rounded=0;entryX=0.5;entryY=1;entryDx=0;entryDy=0;exitX=0.5;exitY=0;exitDx=0;exitDy=0;" parent="1" target="tqBg6Mo9-5VqXeI9J1uN-141" edge="1">
          <mxGeometry width="50" height="50" relative="1" as="geometry">
            <mxPoint x="36" y="22.5" as="sourcePoint" />
            <mxPoint x="36" y="-22.5" as="targetPoint" />
          </mxGeometry>
        </mxCell>
        <mxCell id="tqBg6Mo9-5VqXeI9J1uN-141" value="" style="ellipse;whiteSpace=wrap;html=1;" parent="1" vertex="1">
          <mxGeometry x="-9" y="-57.5" width="90" height="40" as="geometry" />
        </mxCell>
        <mxCell id="tqBg6Mo9-5VqXeI9J1uN-142" value="&lt;font style=&quot;font-size: 18px;&quot;&gt;title&lt;/font&gt;" style="text;strokeColor=none;align=center;fillColor=none;html=1;verticalAlign=middle;whiteSpace=wrap;rounded=0;" parent="1" vertex="1">
          <mxGeometry x="6" y="102.5" width="60" height="30" as="geometry" />
        </mxCell>
        <mxCell id="tqBg6Mo9-5VqXeI9J1uN-143" value="&lt;font style=&quot;font-size: 18px;&quot;&gt;mobile_no&lt;/font&gt;" style="text;strokeColor=none;align=center;fillColor=none;html=1;verticalAlign=middle;whiteSpace=wrap;rounded=0;" parent="1" vertex="1">
          <mxGeometry x="6" y="-52.5" width="60" height="30" as="geometry" />
        </mxCell>
        <mxCell id="tqBg6Mo9-5VqXeI9J1uN-145" value="&lt;font style=&quot;font-size: 18px;&quot;&gt;description&lt;/font&gt;" style="ellipse;whiteSpace=wrap;html=1;" parent="1" vertex="1">
          <mxGeometry x="151" y="17.5" width="99" height="40" as="geometry" />
        </mxCell>
        <mxCell id="tqBg6Mo9-5VqXeI9J1uN-146" value="" style="endArrow=none;html=1;rounded=0;exitX=0;exitY=0.5;exitDx=0;exitDy=0;entryX=1;entryY=0.5;entryDx=0;entryDy=0;" parent="1" source="tqBg6Mo9-5VqXeI9J1uN-145" edge="1">
          <mxGeometry width="50" height="50" relative="1" as="geometry">
            <mxPoint x="120" y="10" as="sourcePoint" />
            <mxPoint x="91" y="37.5" as="targetPoint" />
          </mxGeometry>
        </mxCell>
        <mxCell id="tqBg6Mo9-5VqXeI9J1uN-147" value="&lt;font style=&quot;font-size: 18px;&quot;&gt;title&lt;/font&gt;" style="ellipse;whiteSpace=wrap;html=1;" parent="1" vertex="1">
          <mxGeometry x="-169" y="17.5" width="81" height="40" as="geometry" />
        </mxCell>
        <mxCell id="tqBg6Mo9-5VqXeI9J1uN-148" value="" style="endArrow=none;html=1;rounded=0;exitX=1;exitY=0.5;exitDx=0;exitDy=0;entryX=0;entryY=0.5;entryDx=0;entryDy=0;" parent="1" source="tqBg6Mo9-5VqXeI9J1uN-147" edge="1">
          <mxGeometry width="50" height="50" relative="1" as="geometry">
            <mxPoint x="161" y="48" as="sourcePoint" />
            <mxPoint x="-19" y="37.5" as="targetPoint" />
          </mxGeometry>
        </mxCell>
        <mxCell id="tqBg6Mo9-5VqXeI9J1uN-149" value="" style="endArrow=none;dashed=1;html=1;rounded=0;exitX=0.75;exitY=0;exitDx=0;exitDy=0;entryX=0;entryY=1;entryDx=0;entryDy=0;" parent="1" source="RYSnVqshEYIntnt8OESb-22" edge="1">
          <mxGeometry width="50" height="50" relative="1" as="geometry">
            <mxPoint x="80" y="310" as="sourcePoint" />
            <mxPoint x="-19" y="52.5" as="targetPoint" />
          </mxGeometry>
        </mxCell>
        <mxCell id="tqBg6Mo9-5VqXeI9J1uN-152" value="" style="verticalLabelPosition=bottom;verticalAlign=top;html=1;shape=mxgraph.basic.frame;dx=10;whiteSpace=wrap;" parent="1" vertex="1">
          <mxGeometry x="-680" y="100" width="110" height="50" as="geometry" />
        </mxCell>
        <mxCell id="tqBg6Mo9-5VqXeI9J1uN-153" value="" style="verticalLabelPosition=bottom;verticalAlign=top;html=1;shape=mxgraph.basic.frame;dx=10;whiteSpace=wrap;" parent="1" vertex="1">
          <mxGeometry x="-19" y="12.5" width="110" height="50" as="geometry" />
        </mxCell>
        <mxCell id="tqBg6Mo9-5VqXeI9J1uN-154" value="&lt;font style=&quot;font-size: 18px;&quot;&gt;contact_us&lt;/font&gt;" style="text;html=1;align=center;verticalAlign=middle;resizable=0;points=[];autosize=1;strokeColor=none;fillColor=none;" parent="1" vertex="1">
          <mxGeometry x="-19" y="17.5" width="110" height="40" as="geometry" />
        </mxCell>
        <mxCell id="tqBg6Mo9-5VqXeI9J1uN-155" value="" style="verticalLabelPosition=bottom;verticalAlign=top;html=1;shape=mxgraph.basic.frame;dx=10;whiteSpace=wrap;" parent="1" vertex="1">
          <mxGeometry x="-715" y="372.5" width="110" height="50" as="geometry" />
        </mxCell>
      </root>
    </mxGraphModel>
  </diagram>
</mxfile>
